<?xml version="1.0" encoding="UTF-8"?>
<svg id="Layer_2" data-name="Layer 2" xmlns="http://www.w3.org/2000/svg" viewBox="0 0 75 75">
  <defs>
    <style>
      .cls-1 {
        fill: #fff;
      }
    </style>
  </defs>
  <g id="Layer_1-2" data-name="Layer 1">
    <rect width="75" height="75"/>
    <g>
      <rect class="cls-1" x="21.49" y="29.2" width="7.41" height="23.49"/>
      <path class="cls-1" d="M49.16,28.97c-4.25,0-6.91,2.3-7.4,3.91v-3.69h-8.33c.11,1.96,0,23.49,0,23.49h8.33v-12.71c0-.71-.03-1.41,.18-1.92,.57-1.41,1.8-2.88,4.01-2.88,2.89,0,4.21,2.17,4.21,5.35v12.16h8.41v-13.06c0-7.28-4.14-10.65-9.41-10.65Z"/>
      <path class="cls-1" d="M25.06,18.11c-2.74,0-4.53,1.76-4.53,4.08s1.74,4.07,4.42,4.07h.05c2.79,0,4.52-1.8,4.52-4.08-.05-2.32-1.74-4.07-4.47-4.07Z"/>
    </g>
  </g>
</svg>